# xmcd CD database file
#
# Track frame offsets:
#	150
#	18885
#	35373
#	51431
#	63216
#	77095
#	97084
#	112882
#	130753
#	148363
#	158160
#	177877
#	192744
#	206928
#	222177
#	236907
#	252932
#	275532
#	295999
#
# Disc length: 4258 seconds
#
# Revision: 3
# Processed by: cddbd v1.5.2PL0 Copyright (c) Steve Scherf et al.
# Submitted via: CDex 1.70beta2
#
DISCID=2610a013
DTITLE=Sampler - Melodien für Millionen
DYEAR=2005
DGENRE=Folk
TTITLE0=Thimo Sander/Im Kreis
TTITLE1=Erdmöbel/Au Pair Girl
TTITLE2=Dirk Darmstaeter/Coming Up For Air
TTITLE3=Missouri/This Is A Robery
TTITLE4=Kolkhorst/Nötigerweise
TTITLE5=Paul Dimmer Band/Kein allzu guter TAg
TTITLE6=Samba/Gib mir Karma
TTITLE7=Tess Wiley/Let It Come
TTITLE8=Garish/Alles nur Idee (Single Edit)
TTITLE9=Darlo/Je suis, tu es
TTITLE10=Downpilot/Not Detouted
TTITLE11=Maplewood/Indian Summer
TTITLE12=The Horror The Horror/All I Can Do
TTITLE13=Niels Frevert/Gemeinsame Sache
TTITLE14=Anjo/Vorhang auf
TTITLE15=Hidalgo/Agent No.1
TTITLE16=Mon)tag/Sonst nichts mehr
TTITLE17=Wolke/Auf der Strecle
TTITLE18=Crash Tokio/All Stars Are Set
EXTD=makobert YEAR: 2005
EXTT0=
EXTT1=
EXTT2=
EXTT3=
EXTT4=
EXTT5=
EXTT6=
EXTT7=
EXTT8=
EXTT9=
EXTT10=
EXTT11=
EXTT12=
EXTT13=
EXTT14=
EXTT15=
EXTT16=
EXTT17=
EXTT18=
PLAYORDER=
